<?xml version="1.0" standalone="no"?>
<!DOCTYPE svg PUBLIC "-//W3C//DTD SVG 20010904//EN"
 "http://www.w3.org/TR/2001/REC-SVG-20010904/DTD/svg10.dtd">
<svg version="1.0" xmlns="http://www.w3.org/2000/svg"
 width="700.000000pt" height="700.000000pt" viewBox="0 0 700.000000 700.000000"
 preserveAspectRatio="xMidYMid meet">
<metadata>
Created by potrace 1.14, written by Peter Selinger 2001-2017
</metadata>
<g transform="translate(0.000000,700.000000) scale(0.100000,-0.100000)"
fill="#000000" stroke="none">
<path d="M3856 6323 c-3 -4 -27 -6 -52 -4 -35 1 -44 -1 -38 -11 6 -10 5 -10
-7 -2 -8 6 -23 10 -34 8 -11 -2 -54 -6 -95 -8 -41 -3 -79 -5 -84 -5 -4 -1 -5
-9 -2 -18 5 -16 5 -16 -6 -2 -13 16 -28 16 -108 0 -25 -6 -75 -15 -112 -22
-37 -6 -66 -15 -63 -19 3 -5 -4 -6 -14 -3 -11 3 -35 0 -54 -6 -38 -13 -76 -22
-94 -23 -7 -1 -13 -4 -13 -7 0 -4 -12 -8 -26 -9 -14 -1 -31 -5 -37 -9 -7 -4
-18 -8 -26 -10 -40 -6 -61 -15 -56 -23 3 -6 -1 -7 -10 -4 -8 4 -23 0 -32 -7
-9 -8 -18 -13 -20 -11 -8 6 -52 -11 -48 -18 3 -5 0 -12 -6 -16 -7 -4 -9 -3 -5
4 3 6 2 13 -4 17 -5 3 -10 2 -10 -3 0 -5 -25 -15 -55 -22 -31 -7 -52 -17 -48
-23 3 -6 1 -7 -5 -3 -16 10 -93 -15 -85 -27 3 -6 1 -7 -5 -4 -13 9 -44 -2 -37
-13 3 -5 -3 -6 -13 -4 -9 3 -26 -3 -37 -14 -11 -10 -24 -18 -29 -19 -15 -1
-75 -63 -81 -83 -4 -11 -10 -20 -14 -20 -11 0 -32 -50 -25 -61 3 -5 2 -8 -3
-7 -4 2 -9 -1 -10 -6 -1 -5 -6 -12 -13 -16 -6 -4 -12 -14 -14 -22 -1 -9 -8
-23 -15 -32 -7 -9 -11 -23 -7 -31 3 -9 2 -13 -4 -10 -9 5 -12 -1 -9 -21 0 -4
-3 -10 -8 -13 -12 -8 -53 -97 -53 -116 0 -8 -4 -15 -9 -15 -5 0 -11 -10 -14
-22 -2 -13 -8 -32 -12 -42 -6 -15 -5 -17 5 -11 9 5 11 4 6 -4 -4 -6 -11 -9
-16 -6 -5 3 -11 -5 -15 -17 -4 -13 -15 -42 -26 -65 -10 -24 -19 -47 -19 -53 0
-5 -9 -24 -19 -42 -11 -17 -18 -35 -15 -40 3 -4 0 -8 -5 -8 -6 0 -11 -5 -11
-11 0 -6 -16 -42 -35 -81 -19 -39 -32 -75 -28 -81 3 -6 2 -7 -4 -4 -6 4 -19
-10 -29 -31 -10 -20 -21 -39 -24 -42 -3 -3 -17 -21 -30 -40 -13 -19 -43 -54
-67 -78 -24 -24 -40 -48 -37 -54 4 -7 2 -8 -5 -4 -6 4 -24 0 -39 -10 -51 -35
-87 -51 -101 -46 -9 3 -11 0 -6 -8 5 -7 4 -11 -1 -8 -5 3 -38 7 -74 9 -36 2
-74 9 -86 16 -11 7 -24 10 -27 6 -4 -3 -7 -1 -7 5 0 7 -5 12 -11 12 -5 0 -26
11 -46 25 -20 13 -40 22 -45 19 -5 -3 -7 -1 -6 4 4 12 -69 82 -77 74 -3 -3 -5
0 -5 6 0 16 -161 182 -171 177 -4 -3 -9 2 -12 10 -13 33 -179 98 -235 91 -17
-2 -29 1 -26 5 8 13 -10 11 -24 -3 -9 -9 -12 -9 -12 1 0 7 -3 10 -7 8 -5 -3
-26 -8 -48 -11 -21 -4 -43 -12 -47 -19 -6 -9 -8 -9 -8 1 0 8 -5 10 -12 5 -7
-4 -16 -8 -20 -9 -5 -1 -11 -2 -15 -3 -5 -1 -1 -6 7 -11 11 -8 8 -9 -12 -4
-23 5 -28 3 -28 -12 0 -12 -3 -15 -8 -8 -5 8 -17 5 -39 -11 -18 -12 -30 -24
-27 -27 3 -3 -3 -5 -13 -5 -10 1 -17 -4 -15 -11 1 -8 -2 -11 -7 -8 -12 8 -73
-43 -65 -55 3 -5 -1 -9 -9 -9 -14 0 -47 -31 -47 -44 0 -5 7 -5 16 -2 9 3 12 2
9 -5 -4 -5 -14 -7 -23 -4 -11 3 -22 -3 -30 -16 -11 -17 -11 -20 0 -14 7 3 4
-1 -7 -10 -11 -9 -19 -21 -18 -26 2 -5 -1 -9 -7 -9 -13 0 -52 -78 -45 -91 4
-5 1 -8 -6 -7 -7 2 -14 -1 -14 -7 -1 -5 -7 -23 -13 -38 -7 -16 -10 -33 -6 -38
3 -5 1 -9 -3 -9 -15 0 -31 -76 -20 -96 7 -12 6 -15 -2 -10 -12 8 -10 -100 3
-158 15 -66 94 -175 117 -161 5 4 8 1 7 -7 -2 -7 3 -12 10 -11 6 2 12 -1 12
-7 0 -11 91 -53 98 -45 3 3 10 1 16 -4 6 -5 26 -12 45 -16 26 -6 32 -4 27 6
-4 8 -1 6 7 -4 10 -12 17 -14 22 -7 3 5 12 7 18 3 7 -5 71 -8 142 -9 153 -1
246 -10 287 -28 9 -4 23 -8 31 -10 8 -1 26 -10 42 -20 23 -15 29 -16 37 -5 7
11 8 11 6 -1 -3 -17 51 -77 65 -72 5 1 6 -2 3 -7 -3 -5 1 -26 10 -47 9 -22 16
-51 16 -67 0 -15 3 -25 8 -22 5 3 6 -7 2 -22 -4 -16 -7 -49 -7 -75 0 -25 -3
-44 -7 -41 -5 2 -8 -7 -8 -20 0 -13 -11 -45 -25 -71 -14 -26 -23 -52 -20 -57
4 -5 0 -9 -8 -9 -7 0 -18 -10 -24 -22 -13 -28 -106 -156 -140 -193 -7 -7 -10
-22 -7 -32 4 -13 3 -14 -3 -5 -8 10 -12 10 -22 -2 -9 -11 -9 -15 1 -19 9 -4 7
-6 -4 -6 -24 -1 -32 -19 -16 -39 11 -15 11 -16 -3 -4 -13 10 -19 10 -29 -2 -6
-9 -9 -20 -5 -26 3 -5 -1 -13 -9 -16 -8 -3 -31 -36 -50 -73 -27 -53 -32 -71
-23 -80 9 -10 9 -12 -2 -9 -22 5 -44 -89 -40 -177 0 -22 1 -51 2 -65 0 -14 8
-31 16 -38 9 -8 11 -11 5 -8 -19 9 -24 -20 -8 -42 9 -14 11 -23 4 -27 -6 -4
-8 -9 -6 -13 2 -4 7 -31 11 -59 3 -29 10 -67 15 -84 5 -18 7 -35 5 -39 -2 -4
2 -15 9 -26 8 -10 11 -25 8 -33 -4 -10 -1 -12 9 -6 11 6 12 5 2 -5 -8 -9 -9
-19 -3 -30 5 -9 11 -28 13 -41 10 -55 32 -115 47 -127 9 -8 9 -11 1 -6 -10 5
-11 1 -6 -17 4 -13 10 -26 14 -29 3 -3 7 -16 9 -30 1 -13 6 -27 10 -30 4 -3 8
-14 10 -25 2 -11 6 -27 9 -35 8 -19 10 -27 12 -41 0 -6 8 -8 17 -5 15 6 15 4
3 -10 -11 -14 -11 -18 -1 -21 6 -3 10 -9 7 -13 -3 -5 3 -24 14 -43 11 -19 17
-38 14 -41 -4 -3 2 -6 13 -7 11 0 14 -3 6 -6 -8 -3 -10 -9 -3 -16 5 -7 10 -16
12 -22 5 -23 22 -54 29 -50 3 2 6 -6 6 -18 -1 -12 4 -21 9 -20 6 1 11 -10 12
-24 0 -14 5 -28 10 -32 4 -3 9 -11 10 -16 4 -23 87 -161 107 -178 11 -10 14
-15 7 -11 -13 6 21 -50 39 -66 3 -3 10 -14 17 -25 6 -11 16 -19 21 -18 5 1 9
-5 8 -15 0 -9 5 -16 12 -14 8 1 11 -2 7 -8 -8 -13 14 -42 25 -35 4 3 7 -3 6
-13 0 -9 5 -16 12 -14 8 1 11 -1 9 -5 -9 -14 21 -46 34 -37 8 4 10 3 5 -4 -4
-7 5 -27 21 -46 21 -27 30 -32 40 -24 10 8 12 7 8 -4 -5 -12 8 -19 52 -30 32
-8 68 -14 81 -13 12 1 22 -2 22 -7 0 -5 4 -6 10 -3 5 3 28 8 51 10 46 5 105
36 102 53 -2 7 4 9 15 5 9 -3 14 -3 11 1 -4 4 3 18 15 31 23 25 53 109 62 172
8 61 8 188 0 201 -4 7 -3 12 1 12 5 0 7 16 5 36 -3 25 -7 32 -13 23 -6 -9 -9
-10 -9 -2 0 6 4 14 10 18 5 3 8 19 7 34 -1 16 -6 27 -11 23 -5 -3 -6 1 -1 8 4
7 10 38 12 69 6 89 8 105 16 119 5 7 3 12 -3 12 -7 0 -5 7 4 16 9 8 16 23 16
33 0 9 5 22 12 29 7 7 8 12 2 12 -5 0 -3 4 4 9 7 4 14 17 15 29 0 11 4 20 8
19 4 -1 23 14 42 34 20 20 50 43 67 50 19 9 28 19 25 28 -4 11 -3 11 9 2 9 -7
21 -9 28 -5 7 5 23 8 36 9 12 0 27 7 32 15 7 10 10 11 10 3 0 -8 14 -13 38
-13 20 0 57 -5 82 -11 25 -6 57 -11 72 -11 15 -1 25 -5 22 -10 -3 -4 2 -8 10
-8 24 0 30 -2 45 -18 8 -7 22 -11 32 -9 10 3 17 2 16 -2 -1 -3 2 -7 7 -8 5 -1
12 -5 15 -10 13 -19 77 -58 89 -55 8 2 11 -1 8 -7 -8 -12 48 -53 59 -43 5 4 5
2 2 -4 -7 -11 30 -53 47 -53 6 0 11 -8 12 -16 3 -24 25 -46 37 -38 6 3 7 1 3
-6 -9 -14 28 -63 39 -53 5 4 5 2 1 -5 -7 -13 13 -65 23 -59 3 2 7 -7 7 -21 1
-13 10 -31 20 -39 11 -9 13 -12 5 -8 -11 5 -13 3 -8 -10 4 -10 7 -25 7 -34 0
-13 3 -13 16 4 15 18 15 17 1 -6 -9 -16 -11 -33 -7 -46 7 -18 6 -51 -2 -181
-1 -7 -5 -13 -10 -13 -4 0 -8 -7 -8 -16 0 -9 5 -12 12 -8 7 5 8 3 4 -5 -5 -7
-11 -10 -14 -6 -3 3 -17 -18 -30 -47 -13 -29 -29 -56 -34 -59 -6 -4 -7 -12 -4
-18 4 -6 12 -8 18 -5 7 5 8 2 3 -5 -5 -9 -10 -10 -18 -2 -13 13 -50 -26 -40
-42 3 -5 2 -7 -4 -4 -6 4 -40 -25 -78 -63 -37 -39 -63 -70 -59 -70 5 0 -2 -7
-14 -16 -25 -17 -54 -68 -45 -78 4 -3 1 -6 -5 -6 -7 0 -12 -7 -12 -15 0 -8 -4
-15 -9 -15 -5 0 -12 -15 -16 -32 -4 -18 -9 -40 -12 -48 -11 -39 -8 -103 5
-108 11 -4 11 -6 1 -13 -10 -6 -10 -15 1 -48 7 -22 17 -38 22 -35 5 3 9 0 7
-7 -3 -27 1 -36 31 -67 17 -18 30 -37 30 -42 0 -6 5 -8 10 -5 6 3 10 1 10 -5
0 -6 4 -8 10 -5 6 3 7 -1 4 -9 -3 -9 -2 -16 3 -16 6 0 36 -25 68 -55 32 -30
61 -52 65 -50 3 2 13 -5 20 -16 8 -10 23 -19 34 -19 11 0 16 -3 13 -7 -8 -8
73 -64 84 -58 4 3 10 -2 13 -11 4 -9 9 -14 12 -11 4 3 13 -1 21 -9 9 -8 22
-13 30 -10 8 3 11 1 8 -4 -3 -6 3 -11 14 -11 33 -2 39 -4 47 -11 4 -4 13 -3
21 3 9 8 13 8 13 1 0 -15 91 -13 109 2 12 9 13 8 7 -3 -7 -11 7 -12 80 -7 164
12 209 18 223 30 12 8 13 8 7 -1 -4 -8 -2 -13 8 -13 8 0 17 3 20 8 2 4 27 7
55 6 28 -1 49 2 46 6 -3 5 4 6 15 3 11 -3 28 1 37 8 12 10 14 10 9 2 -5 -9 0
-13 14 -13 14 0 19 4 14 13 -6 9 -5 9 7 0 8 -7 20 -8 28 -4 7 5 29 6 48 4 25
-4 38 0 49 14 9 11 12 13 9 3 -4 -11 3 -16 24 -16 20 -1 31 4 34 15 4 13 5 13
6 -2 0 -10 6 -15 11 -12 6 4 46 7 88 8 43 0 80 5 84 11 5 7 8 7 8 -2 0 -7 5
-10 12 -6 6 4 36 8 67 10 76 3 171 13 180 18 4 3 24 6 44 8 21 1 37 5 37 8 0
3 16 7 36 8 20 2 45 7 55 12 10 6 27 10 38 10 12 0 21 4 21 8 0 4 9 8 21 9 29
3 89 23 89 31 0 4 10 8 23 8 12 1 52 16 89 33 36 17 71 31 77 31 6 0 11 5 11
11 0 5 4 8 9 4 5 -3 15 0 23 7 7 7 20 14 27 16 30 6 120 59 114 66 -4 4 0 4 9
1 10 -4 25 2 37 14 12 12 23 21 26 21 3 0 9 0 14 0 5 0 17 7 25 16 9 9 23 17
30 18 21 3 47 27 40 37 -3 5 1 6 9 4 14 -6 167 91 167 106 0 5 3 8 8 8 20 -3
23 3 11 19 -13 15 -12 16 3 4 15 -12 23 -9 65 25 26 21 53 43 59 48 7 6 31 26
55 45 46 37 267 255 332 328 21 24 35 47 31 54 -4 6 -3 8 3 5 6 -4 31 21 57
54 41 52 45 63 34 77 -11 15 -11 15 3 4 15 -11 20 -8 38 21 11 18 29 44 41 57
11 13 18 31 15 39 -3 9 -3 12 1 8 10 -10 36 31 28 45 -4 6 -3 8 4 4 9 -5 45
48 93 137 5 10 23 43 40 73 16 31 24 52 17 48 -7 -4 -2 3 10 16 19 18 21 24
10 31 -10 7 -9 9 5 9 9 0 17 5 17 11 0 6 7 26 16 45 14 29 14 37 3 52 -12 15
-12 16 2 5 14 -11 20 -4 44 60 16 39 29 79 30 89 1 9 6 22 12 30 14 16 34 89
28 99 -3 4 -1 9 5 11 5 1 11 14 12 28 2 14 6 27 10 30 4 3 9 21 11 40 2 19 8
43 11 52 4 9 9 25 11 35 2 10 4 18 5 18 1 0 3 10 6 23 3 16 0 21 -8 17 -7 -4
-4 1 6 9 11 9 17 16 14 16 -6 0 2 45 17 89 5 18 4 22 -6 15 -11 -6 -12 -5 -2
7 10 12 10 18 0 29 -8 8 -8 11 -1 7 7 -4 15 0 18 9 8 22 8 26 -3 19 -5 -3 -13
0 -17 6 -4 8 -3 9 5 5 16 -10 31 34 19 58 -6 11 -6 16 -1 13 6 -4 11 6 12 21
1 15 2 38 4 52 1 16 -3 24 -11 22 -8 -1 -11 2 -7 8 3 6 11 8 16 5 5 -4 9 17
10 47 1 29 3 83 4 120 2 38 -1 66 -5 63 -5 -3 -12 -1 -15 5 -4 6 -1 9 7 8 10
-2 12 18 11 92 -2 180 -2 182 -15 174 -8 -5 -8 -3 -2 7 10 15 14 69 5 69 -3 0
-7 24 -9 53 -4 75 -8 92 -23 89 -10 -2 -10 0 -1 11 7 8 10 25 8 38 -3 13 -5
32 -5 42 -1 12 -5 16 -13 11 -10 -6 -10 -5 -1 7 8 9 9 20 3 29 -6 8 -10 27
-10 41 0 14 -3 29 -7 32 -3 4 -8 19 -9 34 -5 45 -26 113 -34 108 -4 -2 -5 6
-3 18 2 12 -1 36 -8 52 -7 17 -11 36 -10 43 1 6 -3 12 -9 12 -6 0 -8 5 -5 10
3 6 3 16 -2 23 -4 6 -9 22 -11 34 -4 30 -30 90 -42 98 -5 3 -10 12 -10 18 0 7
4 6 10 -3 8 -13 10 -13 10 2 0 9 -12 27 -27 39 -18 14 -21 20 -9 15 17 -6 17
-5 4 16 -8 13 -18 36 -22 51 -4 17 -11 25 -18 21 -7 -4 -8 -3 -4 5 8 12 -92
231 -105 231 -4 0 -10 13 -14 30 -4 16 -10 32 -15 35 -5 3 -21 28 -36 55 -15
27 -30 47 -34 45 -4 -3 -7 3 -6 13 0 9 -5 16 -12 14 -8 -1 -11 2 -6 9 4 7 -1
18 -11 26 -11 7 -15 13 -11 13 4 0 -1 14 -11 30 -9 17 -21 30 -25 30 -4 0 -8
7 -8 15 0 8 -4 15 -10 15 -5 0 -10 6 -10 14 0 8 -3 16 -7 18 -5 2 -28 29 -52
60 -24 32 -47 55 -52 52 -5 -3 -7 1 -4 8 5 15 -70 103 -88 103 -7 0 -13 6 -13
13 -1 6 -2 17 -3 23 0 6 -8 9 -15 6 -10 -4 -13 -1 -9 8 3 9 -4 18 -18 24 -13
5 -21 10 -17 10 5 1 -2 12 -14 26 -12 14 -28 23 -36 20 -7 -3 -10 0 -6 6 7 13
-74 99 -93 99 -7 0 -13 7 -13 15 0 14 -12 20 -33 16 -5 -1 -6 2 -3 7 6 10 -30
43 -38 35 -3 -4 -6 0 -6 8 0 8 -18 25 -40 39 -22 14 -40 28 -40 32 0 5 -7 8
-16 8 -9 0 -12 -5 -8 -12 4 -7 3 -8 -4 -4 -6 4 -9 13 -5 21 3 8 1 15 -4 15 -5
0 -18 8 -29 18 -10 10 -34 28 -52 41 -28 20 -35 21 -50 9 -15 -12 -16 -11 -4
4 14 18 0 34 -20 22 -6 -4 -8 -3 -5 3 6 10 -112 88 -144 95 -8 2 -16 5 -19 8
-18 19 -62 40 -72 34 -6 -4 -8 -3 -5 3 6 9 -70 50 -85 45 -5 -1 -8 2 -8 6 0 9
-70 38 -82 35 -4 -2 -8 0 -8 5 0 4 -15 13 -32 21 -18 7 -52 22 -76 32 -24 11
-47 17 -52 14 -5 -3 -11 -1 -15 5 -5 8 -36 19 -95 35 -3 1 -38 11 -79 24 -40
12 -83 24 -95 26 -11 1 -29 6 -39 10 -10 4 -31 8 -47 9 -17 0 -30 4 -30 8 0
13 -35 9 -49 -4 -10 -11 -11 -9 -5 5 3 10 3 17 -2 16 -5 -1 -25 1 -44 5 -19 4
-60 9 -90 11 -30 2 -65 7 -76 10 -12 4 -25 2 -28 -4 -4 -6 -13 -11 -19 -11 -7
0 -6 4 3 10 11 7 5 10 -25 11 -164 4 -234 7 -243 13 -5 3 -12 2 -16 -1z m1971
-788 c0 -8 -4 -12 -9 -9 -5 3 -6 10 -3 15 9 13 12 11 12 -6z m38 -43 c-3 -3
-11 0 -18 7 -9 10 -8 11 6 5 10 -3 15 -9 12 -12z m-4881 -358 c3 -8 2 -12 -4
-9 -6 3 -10 10 -10 16 0 14 7 11 14 -7z m5461 -414 c3 -5 1 -10 -4 -10 -6 0
-11 5 -11 10 0 6 2 10 4 10 3 0 8 -4 11 -10z m-4020 -2528 c-3 -3 -11 0 -18 7
-9 10 -8 11 6 5 10 -3 15 -9 12 -12z m-355 -72 c0 -5 -2 -10 -4 -10 -3 0 -8 5
-11 10 -3 6 -1 10 4 10 6 0 11 -4 11 -10z m4075 -760 c3 -5 1 -10 -4 -10 -6 0
-11 5 -11 10 0 6 2 10 4 10 3 0 8 -4 11 -10z m-144 -173 c-10 -9 -11 -8 -5 6
3 10 9 15 12 12 3 -3 0 -11 -7 -18z m-4411 -41 c0 -3 -4 -8 -10 -11 -5 -3 -10
-1 -10 4 0 6 5 11 10 11 6 0 10 -2 10 -4z m1195 -26 c3 -5 1 -10 -4 -10 -6 0
-11 5 -11 10 0 6 2 10 4 10 3 0 8 -4 11 -10z"/>
</g>
</svg>
